<svg width="31" height="27" viewBox="0 0 31 27" fill="none" xmlns="http://www.w3.org/2000/svg">
<g clip-path="url(#clip0_1613_75281)">
<path fill-rule="evenodd" clip-rule="evenodd" d="M8.66992 24.5167L12.5703 25.5515V24.1983L12.8887 23.8799H15.1175V25.4719V26.5863H12.7295L9.78431 25.3127L8.66992 24.5167Z" fill="#CDBDB2"/>
<path fill-rule="evenodd" clip-rule="evenodd" d="M21.4082 24.5167L17.5874 25.5515V24.1983L17.2691 23.8799H15.0403V25.4719V26.5863H17.4283L20.3733 25.3127L21.4082 24.5167Z" fill="#CDBDB2"/>
<path fill-rule="evenodd" clip-rule="evenodd" d="M12.8907 21.5709L12.5723 24.1976L12.9702 23.8792H17.1093L17.5869 24.1976L17.2685 21.5709L16.6317 21.1729L13.4478 21.2525L12.8907 21.5709Z" fill="#393939"/>
<path fill-rule="evenodd" clip-rule="evenodd" d="M10.7402 3.82031L12.6506 8.27786L13.5263 21.2526H16.6306L17.5858 8.27786L19.3369 3.82031H10.7402Z" fill="#F89C35"/>
<path fill-rule="evenodd" clip-rule="evenodd" d="M2.38307 13.6116L0.154297 20.0591L5.72623 19.7407H9.30812V16.9548L9.14892 11.2236L8.35293 11.8604L2.38307 13.6116Z" fill="#F89D35"/>
<path fill-rule="evenodd" clip-rule="evenodd" d="M6.60352 14.3271L13.1306 14.4863L12.4143 17.8295L9.30988 17.0335L6.60352 14.3271Z" fill="#D87C30"/>
<path fill-rule="evenodd" clip-rule="evenodd" d="M6.60352 14.4072L9.30988 16.9544V19.5016L6.60352 14.4072Z" fill="#EA8D3A"/>
<path fill-rule="evenodd" clip-rule="evenodd" d="M9.31055 17.0342L12.4945 17.8302L13.5294 21.253L12.8129 21.6509L9.31055 19.5813V17.0342Z" fill="#F89D35"/>
<path fill-rule="evenodd" clip-rule="evenodd" d="M9.30671 19.5811L8.66992 24.5162L12.8887 21.5711L9.30671 19.5811Z" fill="#EB8F35"/>
<path fill-rule="evenodd" clip-rule="evenodd" d="M13.13 14.4863L13.528 21.2523L12.334 17.7897L13.13 14.4863Z" fill="#EA8E3A"/>
<path fill-rule="evenodd" clip-rule="evenodd" d="M5.64648 19.6607L9.30804 19.5811L8.67125 24.5162L5.64648 19.6607Z" fill="#D87C30"/>
<path fill-rule="evenodd" clip-rule="evenodd" d="M1.90548 26.6659L8.67132 24.5166L5.64656 19.6611L0.154297 20.0591L1.90548 26.6659Z" fill="#EB8F35"/>
<path fill-rule="evenodd" clip-rule="evenodd" d="M12.653 8.27832L9.23036 11.1439L6.60352 14.3278L13.1306 14.5667L12.653 8.27832Z" fill="#E8821E"/>
<path fill-rule="evenodd" clip-rule="evenodd" d="M8.66992 24.5164L12.8887 21.5713L12.5703 24.1185V25.5512L9.70478 24.994L8.66992 24.5164Z" fill="#DFCEC3"/>
<path fill-rule="evenodd" clip-rule="evenodd" d="M21.4082 24.5164L17.2691 21.5713L17.5874 24.1185V25.5512L20.453 24.994L21.4082 24.5164Z" fill="#DFCEC3"/>
<path fill-rule="evenodd" clip-rule="evenodd" d="M11.3763 15.9189L12.252 17.7498L9.14752 16.9538L11.3763 15.9189Z" fill="#393939"/>
<path fill-rule="evenodd" clip-rule="evenodd" d="M1.82617 0.0791016L12.6516 8.27773L10.8209 3.82019L1.82617 0.0791016Z" fill="#E88F35"/>
<path fill-rule="evenodd" clip-rule="evenodd" d="M1.82536 0.0791016L0.392578 4.45705L1.18857 9.23299L0.631375 9.55139L1.42737 10.2678L0.790573 10.825L1.66616 11.621L1.10897 12.0986L2.38255 13.6905L8.35248 11.8598C11.2711 9.52486 12.7039 8.33087 12.6508 8.2778C12.5978 8.22474 8.98928 5.49184 1.82536 0.0791016Z" fill="#8E5A30"/>
<path fill-rule="evenodd" clip-rule="evenodd" d="M27.6951 13.6116L29.9238 20.0591L24.3519 19.7407H20.77V16.9548L20.9292 11.2236L21.7252 11.8604L27.6951 13.6116Z" fill="#F89D35"/>
<path fill-rule="evenodd" clip-rule="evenodd" d="M23.4746 14.3271L16.9475 14.4863L17.6638 17.8295L20.7682 17.0335L23.4746 14.3271Z" fill="#D87C30"/>
<path fill-rule="evenodd" clip-rule="evenodd" d="M23.4746 14.4072L20.7682 16.9544V19.5016L23.4746 14.4072Z" fill="#EA8D3A"/>
<path fill-rule="evenodd" clip-rule="evenodd" d="M20.7676 17.0332L17.5836 17.8292L16.5488 21.252L17.2652 21.6499L20.7676 19.5804V17.0332Z" fill="#F89D35"/>
<path fill-rule="evenodd" clip-rule="evenodd" d="M20.7675 19.5811L21.4043 24.5162L17.2651 21.6506L20.7675 19.5811Z" fill="#EB8F35"/>
<path fill-rule="evenodd" clip-rule="evenodd" d="M16.9482 14.4873L16.5501 21.2533L17.7441 17.7907L16.9482 14.4873Z" fill="#EA8E3A"/>
<path fill-rule="evenodd" clip-rule="evenodd" d="M24.4316 19.6607L20.7701 19.5811L21.4069 24.5162L24.4316 19.6607Z" fill="#D87C30"/>
<path fill-rule="evenodd" clip-rule="evenodd" d="M28.1726 26.6659L21.4068 24.5166L24.4316 19.6611L29.9238 20.0591L28.1726 26.6659Z" fill="#EB8F35"/>
<path fill-rule="evenodd" clip-rule="evenodd" d="M17.4251 8.27832L20.8478 11.1439L23.4746 14.3278L16.9475 14.5667L17.4251 8.27832Z" fill="#E8821E"/>
<path fill-rule="evenodd" clip-rule="evenodd" d="M18.7018 15.9199L17.8262 17.7508L20.9306 16.9548L18.7018 15.9199Z" fill="#393939"/>
<path fill-rule="evenodd" clip-rule="evenodd" d="M28.252 0.0791016L17.4265 8.27773L19.2572 3.82019L28.252 0.0791016Z" fill="#E88F35"/>
<path fill-rule="evenodd" clip-rule="evenodd" d="M28.2489 0.0791016L29.6816 4.45705L28.8857 9.23299L29.4428 9.55139L28.6469 10.2678L29.2836 10.825L28.4081 11.621L28.9652 12.0986L27.6917 13.6905L21.7217 11.8598C18.8031 9.52486 17.3703 8.33087 17.4234 8.2778C17.4765 8.22474 21.0849 5.49184 28.2489 0.0791016Z" fill="#8E5A30"/>
</g>
<defs>
<clipPath id="clip0_1613_75281">
<rect width="30" height="26.7453" fill="white" transform="translate(0.0722656)"/>
</clipPath>
</defs>
</svg>
